<?xml version="1.0" standalone="no"?>
<!DOCTYPE svg PUBLIC "-//W3C//DTD SVG 20010904//EN"
 "http://www.w3.org/TR/2001/REC-SVG-20010904/DTD/svg10.dtd">
<svg version="1.0" xmlns="http://www.w3.org/2000/svg"
 width="512.000000pt" height="512.000000pt" viewBox="0 0 512.000000 512.000000"
 preserveAspectRatio="xMidYMid meet">

<g transform="translate(0.000000,512.000000) scale(0.100000,-0.100000)"
fill="#FFFF00" stroke="none">
<path d="M2395 4900 c-309 -23 -592 -101 -875 -241 -629 -312 -1082 -882
-1243 -1564 -81 -345 -81 -725 0 -1070 53 -224 164 -495 280 -685 186 -302
481 -597 783 -783 108 -66 328 -170 450 -212 415 -143 880 -168 1300 -70 534
126 1019 443 1344 879 109 146 161 233 240 396 157 327 229 644 228 1015 0
362 -72 682 -228 1005 -79 163 -132 250 -240 396 -472 633 -1254 992 -2039
934z m248 -176 l37 -7 -2 -721 -3 -721 -107 -3 -108 -3 0 725 c0 682 1 725 18
729 27 7 123 7 165 1z m-363 -734 l0 -720 -640 0 c-429 0 -640 3 -640 10 0 19
56 134 100 205 122 199 312 392 513 518 65 42 231 127 247 127 6 0 10 -72 10
-205 l0 -205 -130 0 -130 0 0 -90 0 -90 220 0 220 0 0 425 c0 234 -2 425 -4
425 -2 0 -51 -16 -108 -36 -207 -71 -433 -194 -592 -321 l-68 -56 -89 89
c-101 100 -102 86 8 176 270 221 622 383 970 448 54 10 101 19 106 19 4 1 7
-323 7 -719z m723 689 c315 -63 668 -231 920 -437 114 -94 113 -81 21 -173
-43 -43 -82 -79 -85 -79 -4 0 -31 20 -61 44 -153 125 -372 243 -582 315 -65
23 -120 41 -122 41 -2 0 -3 -190 -2 -422 l3 -423 223 -3 222 -2 0 90 0 89
-132 3 -133 3 -3 203 c-2 165 0 202 11 202 20 0 192 -89 272 -141 232 -151
442 -387 555 -624 22 -46 40 -86 40 -89 0 -3 -290 -6 -645 -6 l-645 0 0 715 0
715 21 0 c11 0 67 -9 122 -21z m-1942 -745 l87 -87 -55 -65 c-155 -182 -300
-471 -329 -652 l-7 -40 762 0 761 0 0 -125 0 -125 -932 2 -933 3 3 30 c25 232
155 590 300 823 78 125 231 322 250 322 4 0 46 -39 93 -86z m3167 5 c157 -185
304 -450 385 -695 41 -124 80 -286 89 -369 l3 -30 -922 -3 -923 -2 0 125 0
125 765 0 c421 0 765 3 765 8 0 4 -11 48 -24 97 -50 186 -164 403 -302 574
l-76 93 78 79 c43 44 83 78 89 76 5 -2 38 -37 73 -78z m-1548 -1064 l0 -215
495 0 495 0 0 -105 0 -105 -495 0 -495 0 0 -215 0 -215 -110 0 -110 0 0 215 0
215 -495 0 -495 0 0 105 0 105 495 0 495 0 0 215 0 215 110 0 110 0 0 -215z
m-1390 -320 l0 -105 -444 0 -443 0 -7 31 c-8 40 -8 127 0 157 l6 22 444 0 444
0 0 -105z m3434 83 c8 -30 8 -117 0 -157 l-6 -31 -434 0 -434 0 0 105 0 105
434 0 434 0 6 -22z m-2444 -493 l0 -125 -761 0 -762 0 7 -40 c30 -186 191
-500 345 -671 l50 -56 -88 -87 -87 -87 -45 48 c-177 190 -341 476 -433 753
-43 131 -86 311 -86 364 l0 26 930 0 930 0 0 -125z m2420 99 c0 -109 -99 -433
-189 -619 -90 -186 -244 -417 -343 -512 l-34 -33 -78 79 -78 79 64 78 c159
192 270 398 324 599 13 50 24 93 24 98 0 4 -344 7 -765 7 l-765 0 0 125 0 125
920 0 920 0 0 -26z m-2420 -1119 l0 -714 -32 5 c-345 62 -634 172 -881 338
-102 68 -247 182 -247 194 0 4 38 45 84 91 l84 84 64 -50 c157 -125 375 -243
586 -317 57 -20 105 -36 108 -36 2 0 4 191 4 425 l0 425 -220 0 -220 0 0 -90
0 -90 130 0 130 0 0 -205 c0 -133 -4 -205 -10 -205 -14 0 -141 64 -215 108
-219 131 -424 335 -551 548 -47 79 -94 176 -94 194 0 6 233 10 640 10 l640 0
0 -715z m398 -6 l2 -716 -37 -7 c-48 -7 -131 -8 -160 0 l-23 6 0 720 0 719
108 -3 107 -3 3 -716z m1472 715 c0 -19 -89 -187 -139 -261 -155 -232 -361
-413 -618 -543 -54 -27 -104 -50 -110 -50 -10 0 -13 48 -13 205 l0 205 135 0
135 0 0 90 0 90 -225 0 -225 0 0 -425 c0 -234 2 -425 4 -425 2 0 57 18 122 41
207 71 437 195 575 310 26 22 51 39 56 39 4 0 44 -36 87 -79 l78 -79 -77 -63
c-195 -162 -448 -301 -691 -382 -129 -43 -314 -87 -363 -87 l-21 0 0 710 0
710 645 0 c355 0 645 -3 645 -6z"/>
</g>
</svg>
